<?xml version="1.0" encoding="utf-8"?>
<!-- Generator: Adobe Illustrator 24.0.0, SVG Export Plug-In . SVG Version: 6.00 Build 0)  -->
<svg version="1.1" id="Layer_1" xmlns="http://www.w3.org/2000/svg" xmlns:xlink="http://www.w3.org/1999/xlink" x="0px" y="0px"
	 viewBox="0 0 340.6 118.67" style="enable-background:new 0 0 340.6 118.67;" xml:space="preserve">
<style type="text/css">
	.st0{fill:#555859;}
</style>
<g>
	<g>
		<path class="st0" d="M94.57,4.94H11.48c-1.94,0-3.51,1.57-3.51,3.51v25.02c0,1.94,1.57,3.51,3.51,3.51h83.09
			c1.94,0,3.51-1.57,3.51-3.51V8.46C98.09,6.52,96.51,4.94,94.57,4.94z M39.88,14c0,0.66-0.53,1.19-1.19,1.19h-5.41v14.98
			c0,0.66-0.53,1.19-1.19,1.19H29.3c-0.66,0-1.19-0.53-1.19-1.19V15.19h-5.44c-0.66,0-1.19-0.53-1.19-1.19v-2.23
			c0-0.66,0.53-1.19,1.19-1.19h16.02c0.66,0,1.19,0.53,1.19,1.19C39.88,11.77,39.88,14,39.88,14z M62.93,30.25
			c0,0.61-0.5,1.11-1.11,1.11h-2.95c-0.61,0-1.11-0.5-1.11-1.11v-6.69h-8.47v6.69c0,0.61-0.5,1.11-1.11,1.11h-2.95
			c-0.61,0-1.11-0.5-1.11-1.11V11.68c0-0.61,0.5-1.11,1.11-1.11h2.95c0.61,0,1.11,0.5,1.11,1.11v7.24h8.47v-7.24
			c0-0.61,0.5-1.11,1.11-1.11h2.95c0.61,0,1.11,0.5,1.11,1.11V30.25z M84.59,13.98c0,0.6-0.48,1.08-1.08,1.08h-9.47v3.79h8.12
			c0.6,0,1.08,0.48,1.08,1.08v2.24c0,0.6-0.48,1.08-1.08,1.08h-8.12v3.61h9.47c0.6,0,1.08,0.48,1.08,1.08v2.33
			c0,0.6-0.48,1.08-1.08,1.08H69.95c-0.6,0-1.08-0.48-1.08-1.08V11.65c0-0.6,0.48-1.08,1.08-1.08H83.5c0.6,0,1.08,0.48,1.08,1.08
			L84.59,13.98L84.59,13.98z"/>
	</g>
	<g>
		<path class="st0" d="M49.64,63.62v22.95h-13.5v-20.8c0-5.72-2.9-8.45-7.29-8.45c-2.49,0-5.14,1.41-7.46,4.06v25.19H7.97V46.39
			h13.42v2.73c3.23-2.57,6.79-3.98,11.1-3.98C42.68,45.15,49.64,52.19,49.64,63.62z"/>
	</g>
	<g>
		<path class="st0" d="M97.61,70.17l0.08,0.25H69.03c1.08,3.64,3.89,6.46,9.03,6.46c2.82,0,4.97-1.08,6.13-2.9h13.26
			c-1.9,8.29-9.61,13.51-19.55,13.51c-13.17,0-21.96-8.78-21.96-21.05c0-12.18,8.53-20.96,21.38-20.96
			c11.68,0,20.55,8.04,20.55,20.13C97.86,67.1,97.86,68.68,97.61,70.17z M68.86,62.55h16.4c-0.75-4.39-3.64-6.71-7.95-6.71
			C72.76,55.83,69.86,58.49,68.86,62.55z"/>
	</g>
	<g>
		<path class="st0" d="M150.39,86.57h-12.26l-6.38-20.71l-6.46,20.71H113.1L99.27,46.39h14.09l6.3,21.54l6.79-21.54h10.61
			l6.79,21.38l6.3-21.38h14L150.39,86.57z"/>
	</g>
	<g>
		<path class="st0" d="M210.78,85.91c0,12.59-8.95,19.88-21.54,19.88c-12.18,0-21.05-6.96-21.71-17.4h13.26
			c0.66,3.73,3.48,6.05,8.45,6.05c4.56,0,8.12-2.82,8.12-8.29v-3.81c-2.98,1.74-6.54,2.82-10.94,2.82
			c-10.85,0-19.97-8.7-19.97-19.55c0-12.26,9.11-20.63,19.97-20.63c4.39,0,7.95,1.16,10.94,2.98v-1.57h13.42L210.78,85.91
			L210.78,85.91z M197.36,70.75v-11.1c-2.49-2.82-5.39-3.73-8.29-3.73c-5.47,0-9.44,3.9-9.44,9.69c0,4.39,3.98,8.87,9.44,8.87
			C191.97,74.48,194.87,73.56,197.36,70.75z"/>
	</g>
	<g>
		<path class="st0" d="M332.63,63.62v22.95h-13.51v-20.8c0-5.72-2.73-8.45-7.21-8.45c-2.07,0-4.14,0.91-6.13,3.31
			c0.08,0.99,0.17,1.99,0.17,2.98v22.95h-13.42v-20.8c0-5.72-2.82-8.45-7.21-8.45c-2.07,0-4.06,0.99-6.05,3.56v25.68h-13.42V46.39
			h13.42v2.4c2.73-2.32,5.55-3.65,10.03-3.65c5.05,0,9.36,1.9,12.34,5.39c4.23-3.73,8.29-5.39,14.25-5.39
			C325.5,45.15,332.63,52.19,332.63,63.62z"/>
	</g>
	<g>
		<path class="st0" d="M231.5,47.87c-0.55-0.92-1.54-1.48-2.61-1.48h-7.07c-2.35,0-3.81,2.56-2.62,4.58l10.39,23.3
			c0.56,0.95,0.56,2.14,0,3.09l-10.39,23.3c-1.2,2.02,0.26,4.58,2.62,4.58h7.28c1.07,0,2.06-0.56,2.61-1.48l12.28-29.25L231.5,47.87
			z"/>
	</g>
	<g>
		
			<ellipse transform="matrix(0.2298 -0.9732 0.9732 0.2298 141.2843 285.1604)" class="st0" cx="250.8" cy="53.32" rx="7.91" ry="7.91"/>
	</g>
	<g>
		<path class="st0" d="M19.27,102.7v6.88h-2.39v-6.22c0-1.66-1-2.68-2.66-2.68c-1.83,0.02-2.97,1.29-3.14,3.02v5.88h-2.4V98.52h2.39
			v2.12c0.79-1.54,2.2-2.2,4.07-2.2C17.73,98.44,19.27,100.06,19.27,102.7z"/>
		<path class="st0" d="M32.21,104.97h-8.36c0.38,1.71,1.68,2.77,3.43,2.77c1.21,0,2.31-0.46,3.12-1.29l1.27,1.35
			c-1.08,1.19-2.66,1.87-4.57,1.87c-3.41,0-5.66-2.27-5.66-5.6c0-3.35,2.31-5.61,5.59-5.63C30.92,98.44,32.5,100.97,32.21,104.97z
			 M30.13,103.22c-0.08-1.79-1.27-2.87-3.08-2.87c-1.75,0-2.97,1.1-3.24,2.87H30.13z"/>
		<path class="st0" d="M44.69,109.58l-2.81-8.19l-2.81,8.19h-2.45l-4.08-11.06H35l2.87,8.69l2.79-8.69h2.48l2.81,8.69l2.83-8.69
			h2.43l-4.03,11.06H44.69z"/>
		<path class="st0" d="M68.64,109.58l-2.81-8.19l-2.81,8.19h-2.45L56.5,98.52h2.45l2.87,8.69l2.79-8.69h2.48l2.81,8.69l2.83-8.69
			h2.43l-4.03,11.06C71.13,109.58,68.64,109.58,68.64,109.58z"/>
		<path class="st0" d="M83.15,108.23c-0.79,0.98-2.06,1.46-3.66,1.46c-2.39,0-3.89-1.48-3.89-3.43c0-2.02,1.52-3.31,4.18-3.33h3.35
			v-0.33c0-1.39-0.89-2.23-2.64-2.23c-1.06,0-2.16,0.37-3.27,1.12l-0.98-1.66c1.54-0.91,2.66-1.39,4.76-1.39
			c2.85,0,4.45,1.46,4.47,3.89l0.02,7.26h-2.35v-1.36H83.15z M83.13,105.7v-1.02h-2.99c-1.56,0-2.29,0.42-2.29,1.48
			c0,1,0.81,1.64,2.14,1.64C81.69,107.8,83,106.9,83.13,105.7z"/>
		<path class="st0" d="M92.72,111.1c-0.69,1.74-1.93,2.62-3.6,2.62c-1,0-1.79-0.29-2.56-0.93l1.02-1.85
			c0.52,0.38,0.93,0.54,1.44,0.54c0.73,0,1.31-0.39,1.68-1.23l0.37-0.83l-4.57-10.9h2.47l3.31,8.38l3.08-8.38h2.39L92.72,111.1z"/>
		<path class="st0" d="M111.05,108.88c-0.87,0.52-1.79,0.81-2.72,0.81c-1.66,0-3.1-0.96-3.1-3.22v-5.74h-1.56v-1.79h1.56V95.9h2.37
			v3.04h3.27v1.79h-3.27v5.3c0,1.14,0.44,1.5,1.19,1.5c0.5,0,1.02-0.16,1.66-0.48L111.05,108.88z"/>
		<path class="st0" d="M123.64,104.05c0,3.33-2.35,5.62-5.76,5.62c-3.43,0-5.78-2.29-5.78-5.62c0-3.35,2.35-5.61,5.78-5.61
			C121.29,98.44,123.64,100.7,123.64,104.05z M114.49,104.07c0,2.14,1.39,3.6,3.39,3.6c1.97,0,3.37-1.46,3.37-3.6
			c0-2.12-1.39-3.58-3.37-3.58C115.88,100.5,114.49,101.95,114.49,104.07z"/>
		<path class="st0" d="M131.96,97.86c0-2.64,1.96-3.81,3.8-3.81c0.75,0,1.48,0.17,2.06,0.5l-0.08,2.08
			c-0.65-0.29-1.33-0.48-1.91-0.48c-0.85,0-1.5,0.39-1.5,1.48v1.29h2.89v1.79h-2.89v8.88h-2.37v-8.88h-1.46v-1.79h1.46V97.86z
			 M138.43,95.36c0-0.85,0.6-1.46,1.39-1.46s1.39,0.6,1.39,1.46c0,0.83-0.6,1.44-1.39,1.44C139.04,96.8,138.43,96.19,138.43,95.36z
			 M141.01,98.52v11.06h-2.37V98.52H141.01z"/>
		<path class="st0" d="M150.81,108.88c-0.87,0.52-1.79,0.81-2.72,0.81c-1.66,0-3.1-0.96-3.1-3.22v-5.74h-1.56v-1.79h1.56V95.9h2.37
			v3.04h3.27v1.79h-3.27v5.3c0,1.14,0.44,1.5,1.19,1.5c0.5,0,1.02-0.16,1.66-0.48L150.81,108.88z"/>
	</g>
</g>
</svg>
